# xmcd
#
# Track frame offsets: 
#        150
#        9097
#        32902
#        86289
#        98128
#        123241
#        149741
#        164119
#        181280
#        213026
#
# Disc length: 3260 seconds
#
# Revision: 1
# Processed by: cddbd v1.5.2PL0 Copyright (c) Steve Scherf et al.
# Submitted via: ExactAudioCopyFreeDBPlugin 1.0
#
DISCID=7e0cba0a
DTITLE=Soft Machine - BBC In Concert 1972 (HUX 070)
DYEAR=2005
DGENRE=Jazz
TTITLE0=Fanfare
TTITLE1=All White
TTITLE2=Slightly All The Time
TTITLE3=MC
TTITLE4=Drop
TTITLE5=Stumble
TTITLE6=One Across
TTITLE7=As If
TTITLE8=Riff
TTITLE9=Gesolreut
EXTD=YEAR: 1972
EXTT0=
EXTT1=
EXTT2=
EXTT3=
EXTT4=
EXTT5=
EXTT6=
EXTT7=
EXTT8=
EXTT9=
PLAYORDER=
